<?xml version="1.0" encoding="utf-8"?>
<svg xmlns="http://www.w3.org/2000/svg" viewBox="0 0 32 32" width="32" height="32" xmlns:bx="https://boxy-svg.com">
  <defs>
    <bx:export>
      <bx:file format="svg" href="#object-0"/>
      <bx:file format="svg" href="#object-1" path="Untitled 2.svg"/>
    </bx:export>
  </defs>
  <rect x="0" y="0" width="32" height="32" rx="6" ry="6" fill="#ffffff" id="object-1"/>
  <g fill="#000000" style="" transform="matrix(1.14298, 0, 0, 1.119716, -1.578881, -2.80412)">
    <rect x="9.561" y="7" width="3.474" height="17.708" rx="1.25" style=""/>
    <ellipse cx="8.953" cy="24.067" rx="4.058" ry="2.928" style=""/>
    <path d="M 12.061 7 C 21.13 5.667 25.664 7.333 25.664 12 C 22.874 10.667 18.339 10.667 12.061 12 L 12.061 7 Z" style=""/>
  </g>
  <g fill="#000000" transform="matrix(1.343149, 0, 0, 1.118783, -6.820755, -3.824795)" style="" id="object-0">
    <rect x="16" y="14" width="9" height="3" rx="1.5"/>
    <rect x="16" y="19" width="6" height="3" rx="1.5"/>
    <rect x="16" y="24" width="8" height="3" rx="1.5"/>
  </g>
</svg>
